<?xml version="1.0" encoding="utf-8"?><svg viewBox="0 0 800 800" xmlns="http://www.w3.org/2000/svg" xmlns:xlink="http://www.w3.org/1999/xlink"><style>:root>svg{display:none}:root>svg:target{display:block}</style><svg viewBox="0 0 40 41" id="instagram" xmlns="http://www.w3.org/2000/svg"><path d="M12.166 1.293h.5v-.01h15.905c5.965 0 10.847 4.985 10.847 11.112V29.17c0 6.128-4.883 11.112-10.838 11.112H12.166C6.2 40.281 1.31 35.305 1.31 29.188V12.405C1.31 6.278 6.2 1.293 12.166 1.293Zm-8.848 11.12v16.785c0 4.986 3.928 9.017 8.848 9.017H28.58c4.904 0 8.83-4.032 8.83-9.036V12.405c0-5.004-3.927-9.036-8.839-9.036H12.166c-4.913 0-8.838 4.032-8.848 9.045Zm28.084-3.93c0-.59.454-1.038 1.005-1.038.55 0 1.004.448 1.004 1.038 0 .59-.454 1.038-1.004 1.038s-1.004-.448-1.004-1.038ZM10.345 20.787c0-5.656 4.525-10.266 10.03-10.266 5.504 0 10.029 4.61 10.029 10.266s-4.525 10.266-10.03 10.266c-5.504 0-10.029-4.61-10.029-10.266Zm18.05 0c0-4.534-3.56-8.19-8.02-8.19-4.461 0-8.021 3.656-8.021 8.19 0 4.534 3.56 8.19 8.02 8.19 4.461 0 8.021-3.656 8.021-8.19Z"/></svg><svg viewBox="0 0 41 41" id="linkedIn" xmlns="http://www.w3.org/2000/svg"><path d="M34.575.643h-28.4C2.932.643.293 3.275.293 6.51v28.323c0 3.235 2.64 5.868 5.884 5.868h28.399c3.244 0 5.884-2.633 5.884-5.868V6.51c0-3.236-2.64-5.868-5.884-5.868Zm3.53 34.19a3.53 3.53 0 0 1-3.53 3.521h-28.4a3.53 3.53 0 0 1-3.53-3.52V6.51a3.53 3.53 0 0 1 3.53-3.521h28.4a3.53 3.53 0 0 1 3.53 3.52v28.324Z"/><mask id="ba"><path d="M31.42 29.679h-4.312v-7.202c0-.497-.036-.988-.161-1.472-.515-1.999-2.741-1.882-3.627-.935-.445.476-.736 1.014-.748 1.679-.002.158-.012.317-.012.475v7.453h-4.304V16.313h4.302v1.793l.034.015c.03-.041.062-.082.092-.125.432-.598.927-1.13 1.585-1.488.736-.402 1.53-.536 2.356-.512.895.026 1.744.227 2.51.709.98.617 1.579 1.52 1.929 2.604.273.845.362 1.716.363 2.598.002 2.539 0 5.077 0 7.616 0 .05-.004.1-.007.157Z"/></mask><path d="M31.42 29.679h-4.312v-7.202c0-.497-.036-.988-.161-1.472-.515-1.999-2.741-1.882-3.627-.935-.445.476-.736 1.014-.748 1.679-.002.158-.012.317-.012.475v7.453h-4.304V16.313h4.302v1.793l.034.015c.03-.041.062-.082.092-.125.432-.598.927-1.13 1.585-1.488.736-.402 1.53-.536 2.356-.512.895.026 1.744.227 2.51.709.98.617 1.579 1.52 1.929 2.604.273.845.362 1.716.363 2.598.002 2.539 0 5.077 0 7.616 0 .05-.004.1-.007.157Z"/><path d="M31.42 29.679v.03h.029l.001-.029-.03-.001Zm-4.312 0h-.03v.03h.03v-.03Zm0-7.202h.031-.03Zm-.161-1.472.03-.008-.03.008Zm-3.627-.935.023.021-.023-.02Zm-.748 1.679h-.03.03Zm-.012.475h.03-.03Zm0 7.453v.031h.03v-.03h-.03Zm-4.304 0h-.03v.031h.03v-.03Zm0-13.365v-.03h-.03v.03h.03Zm4.302 0h.03v-.03h-.03v.03Zm0 1.793h-.031v.02l.018.008.012-.028Zm.034.015-.012.028.022.01.015-.02-.025-.018Zm.092-.125.025.018-.025-.018Zm1.585-1.488.015.027-.015-.027Zm2.356-.512.001-.03v.03Zm2.51.709.016-.026-.016.026Zm1.929 2.604-.03.01.03-.01Zm.363 2.598h.03-.03Zm0 7.616h-.03.03Zm-.007.126H27.108v.061H31.42v-.06Zm-4.281.03V29.48h-.061V29.679h.061Zm0-.198v-7.003h-.06c-.002 2.334-.001 4.669-.001 7.003h.061Zm0-7.003c0-.498-.037-.992-.162-1.48l-.06.015c.124.482.161.97.161 1.465h.061Zm-.162-1.48c-.261-1.012-.957-1.49-1.7-1.595-.74-.103-1.529.166-1.979.647l.045.042c.435-.466 1.203-.729 1.925-.628.72.1 1.395.563 1.65 1.55l.059-.016Zm-3.679-.948c-.448.48-.744 1.025-.756 1.7h.06c.013-.655.3-1.186.74-1.658l-.044-.042Zm-.756 1.7c-.003.155-.012.317-.012.475h.06c0-.159.01-.314.013-.474l-.061-.002Zm-.012.475-.001 7.248h.061v-7.248h-.06Zm-.001 7.248V29.678h.061V29.472h-.061Zm.03.175H18.257v.061H22.56v-.061Zm-4.273.03V16.313h-.06V29.677h.06Zm-.03-13.334H22.558v-.061H18.256v.061Zm4.27-.03V18.104h.062V16.312h-.061Zm.02 1.82.034.015.024-.056-.034-.015-.025.056Zm.07.006.093-.125-.05-.036-.092.124.05.037Zm.093-.126c.43-.597.922-1.123 1.575-1.48l-.03-.053c-.663.362-1.162.897-1.594 1.498l.05.035Zm1.575-1.48c.73-.397 1.518-.531 2.34-.508l.002-.06c-.83-.025-1.63.11-2.371.515l.03.054Zm2.34-.508c.891.026 1.735.227 2.494.705l.033-.052c-.77-.485-1.626-.688-2.525-.714l-.002.061Zm2.494.705c.974.613 1.568 1.51 1.917 2.587l.058-.018c-.352-1.09-.953-2-1.942-2.621l-.033.052Zm1.917 2.587c.271.841.36 1.709.361 2.589h.062c-.001-.884-.091-1.759-.365-2.607l-.058.018Zm.361 2.589c.002 2.539.001 5.077.001 7.616h.061c0-2.538.002-5.077 0-7.616h-.062Zm.001 7.616c0 .049-.005.096-.008.155l.061.003c.003-.055.008-.107.008-.158h-.061Z" mask="url(#ba)"/><path d="M15.61 29.67H11.36V16.325H15.61V29.67ZM13.67 9.672c.67-.001 1.24.236 1.645.643.404.406.643.982.645 1.659.002.67-.238 1.24-.648 1.644-.41.403-.991.64-1.675.64-1.332.002-2.281-.95-2.284-2.29-.002-1.34.96-2.295 2.316-2.296Z"/></svg><svg viewBox="0 0 47.94 47.94" xml:space="preserve" id="star" xmlns="http://www.w3.org/2000/svg"><path d="m26.285 2.486 5.407 10.956a2.58 2.58 0 0 0 1.944 1.412l12.091 1.757c2.118.308 2.963 2.91 1.431 4.403l-8.749 8.528a2.582 2.582 0 0 0-.742 2.285l2.065 12.042c.362 2.109-1.852 3.717-3.746 2.722l-10.814-5.685a2.585 2.585 0 0 0-2.403 0l-10.814 5.685c-1.894.996-4.108-.613-3.746-2.722l2.065-12.042a2.582 2.582 0 0 0-.742-2.285L.783 21.014c-1.532-1.494-.687-4.096 1.431-4.403l12.091-1.757a2.58 2.58 0 0 0 1.944-1.412l5.407-10.956c.946-1.919 3.682-1.919 4.629 0z"/></svg><svg viewBox="0 0 256 256" id="telegram" xmlns="http://www.w3.org/2000/svg"><path d="M128 .82C57.825.82.82 57.825.82 128S57.824 255.18 128 255.18c70.175 0 127.18-57.006 127.18-127.18S198.176.82 128 .82zm0 11.058c64.198 0 116.122 51.924 116.122 116.122 0 64.198-51.924 116.122-116.122 116.122-64.198 0-116.122-51.924-116.122-116.122C11.878 63.802 63.802 11.878 128 11.878zm50.252 55.49c-3.782 0-8.032.877-13.003 2.668-7.72 2.782-98.513 41.332-108.842 45.717-5.906 2.51-16.902 7.18-16.902 18.317 0 7.382 4.325 12.662 12.841 15.703 4.579 1.631 15.453 4.927 21.762 6.663 2.676.736 5.52 1.113 8.446 1.113 5.723 0 11.482-1.426 15.994-3.942-.038.929-.013 1.868.098 2.808.68 5.806 4.26 11.267 9.568 14.612 3.473 2.19 31.837 21.195 36.072 24.214 5.95 4.252 12.528 6.501 19.008 6.501 12.387 0 16.542-12.789 18.544-18.932 2.903-8.92 13.774-81.45 15.001-94.24.835-8.765-2.817-15.982-9.774-19.311-2.604-1.255-5.578-1.89-8.812-1.89zm0 11.06c1.521 0 2.879.252 4.029.81 2.615 1.255 3.946 4.053 3.542 8.284-1.338 13.95-12.182 84.764-14.493 91.864-1.98 6.072-4.065 11.297-8.036 11.297-3.97 0-8.307-1.392-12.582-4.45-4.274-3.052-32.658-22.087-36.6-24.57-3.457-2.178-7.114-7.61-1.966-12.862 4.24-4.324 36.412-35.549 39.16-38.297 2.046-2.051 1.09-4.525-.918-4.525-.69 0-1.519.291-2.376.993-3.362 2.749-50.232 34.113-54.291 36.634-2.688 1.67-6.849 2.873-11.167 2.873-1.842 0-3.706-.22-5.498-.713-6.237-1.72-16.793-4.922-20.984-6.415-4.031-1.438-5.497-2.815-5.497-5.281 0-3.506 4.948-5.926 10.163-8.144 5.507-2.339 100.805-42.807 108.259-45.49 3.45-1.249 6.607-2.008 9.255-2.008z" stroke-miterlimit="10" font-family="none" font-weight="none" font-size="none" text-anchor="none"/></svg></svg>