<svg xmlns="http://www.w3.org/2000/svg" viewBox="0 0 256 256" width="40" height="40"><path d="M128 .82C57.825.82.82 57.825.82 128S57.824 255.18 128 255.18c70.175 0 127.18-57.006 127.18-127.18S198.176.82 128 .82zm0 11.058c64.198 0 116.122 51.924 116.122 116.122 0 64.198-51.924 116.122-116.122 116.122-64.198 0-116.122-51.924-116.122-116.122C11.878 63.802 63.802 11.878 128 11.878zm50.252 55.49c-3.782 0-8.032.877-13.003 2.668-7.72 2.782-98.513 41.332-108.842 45.717-5.906 2.51-16.902 7.18-16.902 18.317 0 7.382 4.325 12.662 12.841 15.703 4.579 1.631 15.453 4.927 21.762 6.663 2.676.736 5.52 1.113 8.446 1.113 5.723 0 11.482-1.426 15.994-3.942-.038.929-.013 1.868.098 2.808.68 5.806 4.26 11.267 9.568 14.612 3.473 2.19 31.837 21.195 36.072 24.214 5.95 4.252 12.528 6.501 19.008 6.501 12.387 0 16.542-12.789 18.544-18.932 2.903-8.92 13.774-81.45 15.001-94.24.835-8.765-2.817-15.982-9.774-19.311-2.604-1.255-5.578-1.89-8.812-1.89zm0 11.06c1.521 0 2.879.252 4.029.81 2.615 1.255 3.946 4.053 3.542 8.284-1.338 13.95-12.182 84.764-14.493 91.864-1.98 6.072-4.065 11.297-8.036 11.297-3.97 0-8.307-1.392-12.582-4.45-4.274-3.052-32.658-22.087-36.6-24.57-3.457-2.178-7.114-7.61-1.966-12.862 4.24-4.324 36.412-35.549 39.16-38.297 2.046-2.051 1.09-4.525-.918-4.525-.69 0-1.519.291-2.376.993-3.362 2.749-50.232 34.113-54.291 36.634-2.688 1.67-6.849 2.873-11.167 2.873-1.842 0-3.706-.22-5.498-.713-6.237-1.72-16.793-4.922-20.984-6.415-4.031-1.438-5.497-2.815-5.497-5.281 0-3.506 4.948-5.926 10.163-8.144 5.507-2.339 100.805-42.807 108.259-45.49 3.45-1.249 6.607-2.008 9.255-2.008z" font-family="none" font-weight="none" font-size="none" text-anchor="none"/></svg>