<svg xmlns="http://www.w3.org/2000/svg" viewBox="0 0 256 256" width="89" height="89"><g fill="none" stroke-miterlimit="10" font-family="none" font-weight="none" font-size="none" text-anchor="none" style="mix-blend-mode:normal"><path d="M234.667 59.253v137.494c0 6.773-4.214 12.8-10.56 15.04l-47.04 22.08L181.333 176V80l-4.266-57.867 47.04 22.08c6.346 2.24 10.56 8.267 10.56 15.04z" fill="#7897e2"/><path d="M23.552 180.347l16.848 10.4a10.673 10.673 0 0012.363-.987l128.57-104.757V28.549c0-6.389-7.904-9.376-12.133-4.586L48 159.323z" fill="#214d7e"/><path d="M23.552 75.653l16.848-10.4a10.673 10.673 0 0112.363.987l128.57 104.763v56.453c0 6.39-7.904 9.376-12.133 4.587L48 96.677z" fill="#637bb3"/><path d="M48 96.693v62.614l-17.067 19.946c-3.093 4.054-9.6 1.867-9.6-3.253V80c0-5.12 6.507-7.307 9.6-3.253z" fill="#3a5597"/></g></svg>